<?xml version="1.0" standalone="no"?><!DOCTYPE svg PUBLIC "-//W3C//DTD SVG 1.1//EN" "http://www.w3.org/Graphics/SVG/1.1/DTD/svg11.dtd"><svg t="1560862616908" class="icon" style="" viewBox="0 0 1024 1024" version="1.1" xmlns="http://www.w3.org/2000/svg" p-id="3220" xmlns:xlink="http://www.w3.org/1999/xlink" width="16" height="16"><defs><style type="text/css"></style></defs><path d="M198.842721 851.001901c-6.255471 0-12.479219-2.381234-17.241686-7.144724-9.525957-9.525957-9.525957-24.957415 0-34.483372l628.693746-628.725468c9.525957-9.525957 24.957415-9.525957 34.483372 0 9.525957 9.525957 9.525957 24.957415 0 34.483372L216.084407 843.857177C211.32194 848.619644 205.098191 851.001901 198.842721 851.001901z" p-id="3221" fill="#d81e06"></path><path d="M824.679395 848.62169c-6.255471 0-12.479219-2.381234-17.241686-7.144724L179.221848 213.230406c-9.525957-9.525957-9.525957-24.957415 0-34.483372 9.525957-9.525957 24.957415-9.525957 34.483372 0l628.215862 628.247584c9.525957 9.525957 9.525957 24.957415 0 34.483372C837.157591 846.240457 830.933843 848.62169 824.679395 848.62169z" p-id="3222" fill="#d81e06"></path></svg>