<?xml version="1.0" standalone="no"?><!DOCTYPE svg PUBLIC "-//W3C//DTD SVG 1.1//EN" "http://www.w3.org/Graphics/SVG/1.1/DTD/svg11.dtd"><svg t="1560956285748" class="icon" style="" viewBox="0 0 1024 1024" version="1.1" xmlns="http://www.w3.org/2000/svg" p-id="6468" xmlns:xlink="http://www.w3.org/1999/xlink" width="16" height="16"><defs><style type="text/css"></style></defs><path d="M922 832H102c-33.1 0-60-26.9-60-60V252c0-33.1 26.9-60 60-60h820c33.1 0 60 26.9 60 60v520c0 33.1-26.9 60-60 60zM102 232c-11 0-20 9-20 20v520c0 11 9 20 20 20h820c11 0 20-9 20-20V252c0-11-9-20-20-20H102z" fill="#8a8a8a" p-id="6469"></path></svg>